<?xml version="1.0" encoding="utf-8"?>
<!-- Generator: Adobe Illustrator 22.1.0, SVG Export Plug-In . SVG Version: 6.00 Build 0)  -->
<svg version="1.1" xmlns="http://www.w3.org/2000/svg" xmlns:xlink="http://www.w3.org/1999/xlink" x="0px" y="0px"
	 viewBox="0 0 300 300" style="enable-background:new 0 0 300 300;" xml:space="preserve">
<style type="text/css">
	.st0{fill:#434444;}
	.st1{fill:#FFFFFF;stroke:#434444;stroke-width:1.9219;stroke-miterlimit:10;}
	.st2{fill:#FFFFFF;stroke:#434444;stroke-width:7;stroke-miterlimit:10;}
</style>
<g id="Layer_3">
	<rect class="st0" width="300" height="300"/>
</g>
<g id="Layer_2">
	<path class="st1" d="M78.9,144.5h-8.3c7.3-5.7,12.2-15.3,12.2-26.2c0-17.4-12.3-31.5-27.5-31.5s-27.5,14.1-27.5,31.5
		c0,10.9,4.8,20.5,12.2,26.2h-8.3C17.5,144.5,6,156,6,170.2v27.4h49.3h49.3v-27.4C104.7,156,93.1,144.5,78.9,144.5z"/>
	<path class="st1" d="M268.2,144.5H260c7.3-5.7,12.2-15.3,12.2-26.2c0-17.4-12.3-31.5-27.5-31.5s-27.5,14.1-27.5,31.5
		c0,10.9,4.8,20.5,12.2,26.2h-8.3c-14.2,0-25.8,11.5-25.8,25.8v27.4h49.3H294v-27.4C294,156,282.5,144.5,268.2,144.5z"/>
	<path class="st2" d="M189.5,153.8h-13.8c12.3-9.5,20.4-25.6,20.4-43.8c0-29.2-20.6-52.8-46-52.8s-46,23.6-46,52.8
		c0,18.3,8.1,34.4,20.4,43.8h-13.8c-23.8,0-43.2,19.3-43.2,43.2v45.9H150h82.6V197C232.6,173.1,213.3,153.8,189.5,153.8z"/>
</g>
</svg>
