<?xml version="1.0" encoding="utf-8"?>
<!-- Generator: Adobe Illustrator 22.1.0, SVG Export Plug-In . SVG Version: 6.00 Build 0)  -->
<svg version="1.1" xmlns="http://www.w3.org/2000/svg" xmlns:xlink="http://www.w3.org/1999/xlink" x="0px" y="0px"
	 viewBox="0 0 300 300" style="enable-background:new 0 0 300 300;" xml:space="preserve">
<style type="text/css">
	.st0{fill:#434444;}
	.st1{fill:#FFFFFF;stroke:#434444;stroke-width:5.3084;stroke-miterlimit:10;}
	.st2{fill:#FFFFFF;stroke:#434444;stroke-width:7;stroke-miterlimit:10;}
</style>
<g id="Layer_3">
	<rect class="st0" width="300" height="300"/>
</g>
<g id="Layer_2">
	<g>
		<path class="st1" d="M255.1,241.9H108.8c-17.3,0-31.2-14-31.2-31.2V41.5c0-17.3,14-31.2,31.2-31.2h146.3c17.3,0,31.2,14,31.2,31.2
			v169.2C286.3,227.9,272.4,241.9,255.1,241.9z"/>
		<path class="st2" d="M117.1,289.8H37.9c-14.1,0-25.5-11.4-25.5-25.5V68.5C12.4,54.4,23.8,43,37.9,43h79.2
			c14.1,0,25.5,11.4,25.5,25.5v195.8C142.6,278.4,131.2,289.8,117.1,289.8z"/>
		<path class="st0" d="M84.4,66.3H70.6c-2.5,0-4.5-2-4.5-4.5v0c0-2.5,2-4.5,4.5-4.5h13.8c2.5,0,4.5,2,4.5,4.5v0
			C88.9,64.3,86.9,66.3,84.4,66.3z"/>
		<path class="st0" d="M192.1,32.7h-20.4c-1.8,0-3.3-1.5-3.3-3.3v0c0-1.8,1.5-3.3,3.3-3.3h20.4c1.8,0,3.3,1.5,3.3,3.3v0
			C195.4,31.2,193.9,32.7,192.1,32.7z"/>
		<circle class="st0" cx="76.2" cy="261.2" r="10.1"/>
		<circle class="st0" cx="181.9" cy="219.1" r="10.1"/>
	</g>
</g>
</svg>
