<?xml version="1.0" encoding="utf-8"?>
<!-- Generator: Adobe Illustrator 22.1.0, SVG Export Plug-In . SVG Version: 6.00 Build 0)  -->
<svg version="1.1" id="Layer_1" xmlns="http://www.w3.org/2000/svg" xmlns:xlink="http://www.w3.org/1999/xlink" x="0px" y="0px"
	 viewBox="0 0 300 300" style="enable-background:new 0 0 300 300;" xml:space="preserve">
<style type="text/css">
	.st0{fill:#434444;}
	.st1{fill:#FFFFFF;}
</style>
<rect class="st0" width="300" height="300"/>
<g>
	<g id="WRMxQm_1_">
		<g>
			<path class="st1" d="M293.3,47.9c0,12.2-0.1,15.2-0.1,16.7c0,42.5,0,84.9,0,127.4c0,2.7,0.1,5.4-0.4,8
				c-1.2,6.9-5.2,12.3-10.4,16.7c-10.3,8.9-22.4,13.2-36,12.9c-5.3-0.1-10.5-1.3-15.1-4c-8.4-4.8-11.5-13.4-8-22.4
				c2.9-7.5,8.3-12.8,14.9-17c9.9-6.3,20.7-9.4,32.5-8.5c4,0.3,7.9,1.3,11.6,3.1c0.5,0.2,0.9,0.4,1.5,0.7c0-31.7,0-63.3,0-95
				c-2.8,0.6-5.4,1.2-8.1,1.8c-30.6,6.8-61.1,13.6-91.7,20.4c-3.2,0.7-6.2,1.8-8.9,3.8c-2.7,2-4.1,4.7-4.4,8
				c-0.1,1.6-0.2,3.1-0.2,4.7c0,33.6,0,67.2,0,100.9c0,3.4,0.5,6.9-0.6,10.2c-2.4,7.3-7.2,12.7-13.3,17
				c-10.1,7.2-21.3,10.7-33.7,10.1c-5.3-0.3-10.3-1.6-14.9-4.4c-7.6-4.8-10.4-12.9-7.4-21.4c2.4-6.8,7.1-11.9,12.8-16
				c10.2-7.3,21.6-10.8,34.2-10.1c4.6,0.3,9.1,1.4,13.5,3.7c0-0.9,0-1.6,0-2.3c0-44,0-88.1,0-132.1c0-8.7,2.3-11.6,10.8-13.5
				c35.8-8,71.6-15.9,107.4-23.9C287.1,41.4,293.3,40.9,293.3,47.9z"/>
		</g>
	</g>
	<g id="WRMxQm_2_">
		<g>
			<path class="st1" d="M77.9,87.5c-0.1,1.6-0.2,3.1-0.2,4.7c0,33.6,0,67.2,0,100.9c0,3.4,0.5,6.9-0.6,10.2
				c-2.4,7.3-7.2,12.7-13.3,17c-10.1,7.2-21.3,10.7-33.7,10.1c-5.7-0.3-11.1-1.8-15.9-5.1c-6.4-4.4-9.1-12.6-6.6-20
				c2.4-7.1,7.1-12.5,13.1-16.7c10.2-7.3,21.6-10.8,34.2-10.1c4.5,0.3,8.9,1.4,13.2,3.6c0.1,0.1,0.2,0,0.2-0.1v-2.1
				c0-44,0-88.1,0-132.1c0-1.1,0-2.1,0.1-3c0.6-6.7,10.6-6,10.4,0.6C78.6,60.4,78.1,85.2,77.9,87.5z"/>
		</g>
	</g>
</g>
</svg>
